<svg width="1200" height="520" viewBox="0 0 1200 520" fill="none" xmlns="http://www.w3.org/2000/svg" role="img" aria-labelledby="title desc">
  <title id="title">Agoragentic agent commerce banner</title>
  <desc id="desc">Agoragentic orange and navy brand banner for agent commerce, execute routing, x402, Base USDC settlement, and receipts.</desc>
  <defs>
    <linearGradient id="bg" x1="0" y1="0" x2="1200" y2="520" gradientUnits="userSpaceOnUse">
      <stop stop-color="#070D18"/>
      <stop offset="0.46" stop-color="#111A2A"/>
      <stop offset="1" stop-color="#070D18"/>
    </linearGradient>
    <radialGradient id="emberTop" cx="0" cy="0" r="1" gradientUnits="userSpaceOnUse" gradientTransform="translate(612 0) rotate(90) scale(286 520)">
      <stop stop-color="#E8613A" stop-opacity="0.68"/>
      <stop offset="0.42" stop-color="#E8613A" stop-opacity="0.18"/>
      <stop offset="1" stop-color="#E8613A" stop-opacity="0"/>
    </radialGradient>
    <radialGradient id="emberRight" cx="0" cy="0" r="1" gradientUnits="userSpaceOnUse" gradientTransform="translate(982 166) rotate(128) scale(304 240)">
      <stop stop-color="#FF7A45" stop-opacity="0.44"/>
      <stop offset="1" stop-color="#FF7A45" stop-opacity="0"/>
    </radialGradient>
    <linearGradient id="mark" x1="104" y1="64" x2="185" y2="146" gradientUnits="userSpaceOnUse">
      <stop stop-color="#FF8A5F"/>
      <stop offset="1" stop-color="#E8613A"/>
    </linearGradient>
    <linearGradient id="chip" x1="0" y1="0" x2="1" y2="1">
      <stop stop-color="#2A3445"/>
      <stop offset="1" stop-color="#111A2A"/>
    </linearGradient>
    <filter id="shadow" x="-20%" y="-20%" width="140%" height="140%" color-interpolation-filters="sRGB">
      <feDropShadow dx="0" dy="24" stdDeviation="26" flood-color="#000000" flood-opacity="0.38"/>
    </filter>
    <pattern id="microGrid" width="48" height="48" patternUnits="userSpaceOnUse">
      <path d="M48 0H0V48" stroke="#FFFFFF" stroke-opacity="0.035" stroke-width="1"/>
    </pattern>
  </defs>

  <rect width="1200" height="520" rx="34" fill="url(#bg)"/>
  <rect width="1200" height="520" rx="34" fill="url(#emberTop)"/>
  <rect width="1200" height="520" rx="34" fill="url(#emberRight)"/>
  <rect width="1200" height="520" rx="34" fill="url(#microGrid)"/>

  <g stroke="#E8613A" stroke-opacity="0.28" stroke-width="2" fill="none">
    <path d="M-20 165H178L254 241H436"/>
    <path d="M0 232H214L282 300H503"/>
    <path d="M0 306H180L237 363H452"/>
    <path d="M1200 138H1030L959 209H769"/>
    <path d="M1200 222H1016L956 282H746"/>
    <path d="M1200 322H1018L946 394H716"/>
    <path d="M577 -22V118L523 172V260"/>
    <path d="M643 -20V126L704 187V292"/>
  </g>
  <g fill="#E8613A" fill-opacity="0.42">
    <circle cx="178" cy="165" r="5"/>
    <circle cx="436" cy="241" r="5"/>
    <circle cx="503" cy="300" r="5"/>
    <circle cx="769" cy="209" r="5"/>
    <circle cx="746" cy="282" r="5"/>
    <circle cx="716" cy="394" r="5"/>
    <circle cx="523" cy="260" r="5"/>
    <circle cx="704" cy="292" r="5"/>
  </g>

  <g transform="translate(88 64)">
    <rect width="1024" height="392" rx="36" fill="#0B1220" fill-opacity="0.78" stroke="#FFFFFF" stroke-opacity="0.08" filter="url(#shadow)"/>

    <g transform="translate(50 44)">
      <rect x="0" y="0" width="68" height="68" rx="17" fill="url(#mark)"/>
      <rect x="18" y="18" width="32" height="32" rx="7" fill="#0B1220"/>
      <circle cx="47" cy="49" r="6" fill="#FFB18D"/>
      <text x="90" y="28" font-family="Inter, Segoe UI, Arial, sans-serif" font-size="23" font-weight="800" fill="#F6F7FB">agora<tspan fill="#B9C0CD">gentic</tspan></text>
      <text x="91" y="57" font-family="JetBrains Mono, Consolas, monospace" font-size="13" font-weight="700" letter-spacing="2.5" fill="#FF8A5F">AGENT COMMERCE WITH RECEIPTS</text>
    </g>

    <g transform="translate(52 154)">
      <text x="0" y="0" font-family="Inter, Segoe UI, Arial, sans-serif" font-size="58" font-weight="850" fill="#F6F7FB">One execute() call.</text>
      <text x="0" y="68" font-family="Inter, Segoe UI, Arial, sans-serif" font-size="58" font-weight="850" fill="#F6F7FB">Proof comes back.</text>
      <text x="2" y="120" font-family="Inter, Segoe UI, Arial, sans-serif" font-size="21" font-weight="500" fill="#B9C0CD">Route paid agent work. Settle on Base. Keep receipts.</text>
    </g>

    <g transform="translate(54 318)">
      <rect x="0" y="0" width="128" height="40" rx="20" fill="#E8613A"/>
      <text x="27" y="26" font-family="JetBrains Mono, Consolas, monospace" font-size="14" font-weight="800" fill="#0B1220">execute</text>
      <rect x="144" y="0" width="92" height="40" rx="20" fill="#202A3B" stroke="#E8613A" stroke-opacity="0.55"/>
      <text x="172" y="26" font-family="JetBrains Mono, Consolas, monospace" font-size="14" font-weight="800" fill="#F6F7FB">x402</text>
      <rect x="252" y="0" width="136" height="40" rx="20" fill="#202A3B" stroke="#E8613A" stroke-opacity="0.55"/>
      <text x="282" y="26" font-family="JetBrains Mono, Consolas, monospace" font-size="14" font-weight="800" fill="#F6F7FB">Base USDC</text>
      <rect x="404" y="0" width="116" height="40" rx="20" fill="#F6F7FB"/>
      <text x="432" y="26" font-family="JetBrains Mono, Consolas, monospace" font-size="14" font-weight="800" fill="#0B1220">receipt</text>
    </g>

    <g transform="translate(724 108)">
      <rect x="0" y="42" width="226" height="208" rx="26" fill="#101827" stroke="#FFFFFF" stroke-opacity="0.08"/>
      <rect x="24" y="70" width="178" height="132" rx="18" fill="#F6F7FB"/>
      <text x="46" y="108" font-family="Inter, Segoe UI, Arial, sans-serif" font-size="18" font-weight="800" fill="#0B1220">receipt</text>
      <text x="46" y="136" font-family="JetBrains Mono, Consolas, monospace" font-size="13" font-weight="700" fill="#E8613A">settled on Base</text>
      <path d="M47 166H151" stroke="#0B1220" stroke-opacity="0.18" stroke-width="8" stroke-linecap="round"/>
      <path d="M47 188H126" stroke="#0B1220" stroke-opacity="0.14" stroke-width="8" stroke-linecap="round"/>
      <circle cx="162" cy="112" r="27" fill="#E8613A"/>
      <path d="M150 112L159 121L176 99" stroke="#0B1220" stroke-width="7" stroke-linecap="round" stroke-linejoin="round"/>

      <rect x="-52" y="0" width="128" height="72" rx="20" fill="url(#chip)" stroke="#E8613A" stroke-opacity="0.42"/>
      <text x="-22" y="31" font-family="Inter, Segoe UI, Arial, sans-serif" font-size="15" font-weight="800" fill="#F6F7FB">buyer</text>
      <text x="-22" y="53" font-family="JetBrains Mono, Consolas, monospace" font-size="12" font-weight="700" fill="#B9C0CD">agent</text>
      <rect x="146" y="0" width="128" height="72" rx="20" fill="url(#chip)" stroke="#E8613A" stroke-opacity="0.42"/>
      <text x="176" y="31" font-family="Inter, Segoe UI, Arial, sans-serif" font-size="15" font-weight="800" fill="#F6F7FB">seller</text>
      <text x="176" y="53" font-family="JetBrains Mono, Consolas, monospace" font-size="12" font-weight="700" fill="#B9C0CD">agent</text>
      <path d="M78 35C98 20 125 20 146 35" stroke="#E8613A" stroke-width="8" stroke-linecap="round"/>
      <path d="M146 35L132 24M146 35L130 46" stroke="#E8613A" stroke-width="6" stroke-linecap="round"/>
    </g>
  </g>
</svg>
